<svg width="120" viewBox="0 0 1024 1024" version="1.1" xmlns="http://www.w3.org/2000/svg"><path d="M54.272 553.984c0-14.848 5.12-27.136 15.36-37.888 10.24-10.752 23.04-15.872 37.376-15.872h377.344v403.968c0 15.36-5.12 28.16-15.36 38.4s-23.04 15.36-38.4 15.36H107.52c-14.848 0-27.136-5.12-37.376-15.36s-15.36-23.04-15.36-38.4v-350.208zM916.48 499.712c14.848 0 27.136 5.12 37.888 15.872 10.752 10.752 15.872 23.552 15.872 37.888v349.696c0 15.36-5.12 28.16-15.872 38.4s-23.552 15.36-37.888 15.36h-323.072c-14.848 0-27.136-5.12-37.888-15.36-10.752-10.24-15.872-23.04-15.872-38.4V499.712H916.48z m26.624-242.688c15.36 0 28.16 5.12 38.4 15.872s15.36 23.552 15.36 38.912v79.872c0 15.36-5.12 28.16-15.36 38.4s-23.04 15.36-38.4 15.36h-403.968V312.32c0-9.216 2.048-17.408 6.144-25.088 4.096-7.68 9.216-13.824 15.872-18.944-6.656 5.12-14.336 8.704-22.528 11.776-8.192 3.072-17.408 4.608-27.136 4.608-17.92 0-33.792-5.632-47.616-16.384 13.824 9.728 20.992 24.576 20.992 44.032v133.632H80.896c-14.848 0-27.136-5.12-37.888-15.36-10.752-10.24-15.872-23.04-15.872-38.4V312.32c0-15.36 5.12-28.16 15.872-38.912 10.752-10.752 23.552-15.872 37.888-15.872h349.696c12.8 0 23.552 3.584 32.256 10.752l-10.752-10.752H194.56c-16.384 0-30.72-6.144-41.984-18.432-11.776-12.288-17.408-26.624-17.408-44.032V131.584c0-16.896 5.632-31.744 17.408-44.544 11.776-12.288 25.6-18.944 41.984-18.944 22.528-3.584 45.568-3.072 68.096 2.048 23.04 5.12 45.056 12.288 66.56 21.504 21.504 9.216 41.472 20.48 60.928 33.28 19.456 12.8 36.864 25.088 52.736 37.376 6.656-12.288 16.384-22.016 28.16-28.672 12.288-7.168 25.6-10.752 40.448-10.752 15.872 0 29.696 3.584 41.984 10.752 12.288 7.168 21.504 16.896 28.16 29.184 14.848-10.752 31.232-22.528 49.664-33.792 18.432-11.776 37.888-22.016 58.88-31.744 20.992-9.216 43.52-16.896 67.072-22.528 23.552-5.632 47.616-8.192 71.68-7.168 16.384 0 30.72 6.144 41.984 18.944 11.776 12.288 17.408 27.136 17.408 44.544v62.976c0 16.896-5.632 31.744-17.408 44.032-11.776 12.288-25.6 18.432-41.984 18.432h-256.512l-5.632 5.632c-2.048 2.048-4.096 3.584-6.656 5.632 9.216-7.168 19.968-10.752 32.256-10.752h350.72zM619.52 230.4h136.704c6.656 0 12.8-2.56 17.92-7.68s7.68-11.776 7.68-19.456v-26.624c0-7.168-2.56-13.824-7.68-18.944s-11.264-7.68-17.92-7.68L619.52 217.088V230.4z m-215.04-13.312L267.776 150.016c-6.656 0-12.288 2.56-17.408 7.68s-7.168 11.264-7.168 18.944v26.624c0 8.192 2.56 14.336 7.168 19.456 5.12 5.12 10.752 7.68 17.408 7.68H404.48v-13.312z m0 0" fill="#fff"></path></svg>