<svg width="120" viewBox="0 0 1024 1024" version="1.1" xmlns="http://www.w3.org/2000/svg"><path d="M892.991311 606.247385C791.69408 865.299692 590.970388 1023.842462 512.693465 1023.842462c-79.163077 0-277.996308-151.000615-381.971693-417.772308C74.362388 461.430154 68.100234 297.728 68.927311 218.505846 69.242388 190.030769 92.479311 159.586462 115.578388 148.499692 211.460234 102.498462 433.668234 0.157538 512.713157 0.157538c78.966154 0 299.933538 101.868308 395.598769 147.830154 21.504 10.318769 46.296615 40.900923 46.670769 63.232 1.260308 76.406154-3.643077 245.819077-61.991384 395.027693z m-53.169231-387.820308c-137.846154-65.161846-285.873231-124.711385-326.715077-124.868923-40.841846 0.177231-189.518769 59.943385-328.014769 125.282461a40.251077 40.251077 0 0 0-22.390154 36.726154c1.536 79.044923 11.776 205.390769 55.335385 317.164308 93.499077 239.931077 254.779077 347.766154 294.675692 357.986461 45.252923-12.189538 205.981538-133.238154 293.828923-357.927384 43.579077-111.478154 53.858462-238.592 55.453538-317.932308 0.275692-13.410462-11.638154-31.448615-22.173538-36.430769zM622.064542 521.176615c43.204923 130.934154 8.605538 155.785846-103.817847 74.555077-112.502154 81.112615-147.081846 56.221538-103.739077-74.653538-112.738462-80.797538-99.505231-121.028923 39.699693-120.694154 42.830769-131.032615 85.602462-131.012923 128.295384 0.078769 139.185231-0.196923 152.379077 40.034462 39.561847 120.713846z" fill="#fff"></path></svg>