<svg width="120" viewBox="0 0 1024 1024" version="1.1" xmlns="http://www.w3.org/2000/svg"><path d="M248.779328 511.549505c0 145.124441 117.645736 262.770177 262.770177 262.770177s262.770177-117.645736 262.770177-262.770177S656.672946 248.779328 511.549505 248.779328 248.779328 366.425064 248.779328 511.549505z" fill="#fff" p-id="60006"></path><path d="M511.549505 0Q543.194165 0 543.194165 31.64566v131.371589q0 31.64566-31.64566 31.64566t-31.64566-31.64566V31.64566Q479.903845 0 511.549505 0z" fill="#fff" p-id="60007"></path><path d="M149.83139 149.828391q22.37676-22.37676 44.75352 0l92.894002 92.899002q22.37676 22.37676 0 44.753519t-44.753519 0l-92.894003-92.894002q-22.37676-22.37676 0-44.75352z" fill="#fff" p-id="60008"></path><path d="M31.64566 479.903845h131.371589q31.64566 0 31.64566 31.64566t-31.64566 31.64566H31.64566Q0 543.194165 0 511.549505q0-31.64566 31.64566-31.64566z" fill="#fff" p-id="60009"></path><path d="M147.854412 827.814107l92.899002-92.899002q22.37676-22.37676 44.753519 0t0 44.75352l-92.894002 92.899002q-22.37676 22.37676-44.753519 0t0-44.75352z" fill="#fff" p-id="60010"></path><path d="M509.665525 829.326091q31.64566 0 31.64566 31.64566v131.371589q0 31.64566-31.64566 31.64566t-31.64566-31.64566V860.971751q0-31.64566 31.64566-31.64566z" fill="#fff" p-id="60011"></path><path d="M712.544346 759.966836l22.376759-22.374759q22.37676-22.37676 44.75352 0l92.899002 92.899002q22.37676 22.37676 0 44.753519t-44.75352 0l-92.899002-92.899002q-22.37676-22.37876 0-44.753519z" fill="#fff" p-id="60012"></path><path d="M860.971751 481.775825h131.371589q31.64566 0 31.64566 31.64566t-31.64566 31.64566H860.971751q-31.64566 0-31.64566-31.64566t31.64566-31.64566z" fill="#fff" p-id="60013"></path><path d="M737.585077 243.407385l92.899002-92.899002q22.37676-22.37676 44.753519 0t0 44.753519l-92.899002 92.894003q-22.37676 22.37676-44.753519 0t0-44.75352z" fill="#fff"></path></svg>