<svg viewBox="0 0 1024 1024" version="1.1" xmlns="http://www.w3.org/2000/svg" p-id="8736"><path d="M874.057143 149.942857a512 512 0 1 0 0 724.114286 512 512 0 0 0 0-724.114286zM687.908571 636.16a25.782857 25.782857 0 0 1 0 36.571429l-15.542857 15.542857a25.782857 25.782857 0 0 1-36.571428 0L512 563.748571l-124.16 124.16a25.782857 25.782857 0 0 1-36.571429 0l-15.542857-15.542857a25.782857 25.782857 0 0 1 0-36.571428L460.251429 512l-124.16-124.16a25.782857 25.782857 0 0 1 0-36.571429l15.542857-15.542857a25.782857 25.782857 0 0 1 36.571428 0L512 460.251429l124.16-124.16a25.782857 25.782857 0 0 1 36.571429 0l15.542857 15.542857a25.782857 25.782857 0 0 1 0 36.571428L563.748571 512z" p-id="8737"></path></svg>