<svg viewBox="0 0 1228 1024" version="1.1" xmlns="http://www.w3.org/2000/svg" p-id="4695"><path d="M935.004926 0.00061h-70.225859a63.07815 63.07815 0 0 0-48.48556 22.397201c-35.973158 42.933181-138.856388 70.741996-203.670634 70.741996s-167.666195-27.808815-203.639353-70.741996a63.297117 63.297117 0 0 0-48.48556-22.397201h-70.382265a63.609927 63.609927 0 0 0-45.592067 19.237819L11.261162 256.489223a39.445349 39.445349 0 0 0 0 55.195336l142.32858 144.784139a37.850018 37.850018 0 0 0 54.272547 0l4.692151-4.692151a8.0705 8.0705 0 0 1 13.826204 5.802627V962.204372c0 32.845057 26.088359 59.433912 58.354718 59.433912h655.649898c32.266358 0 58.354718-26.588856 58.354717-59.433912V457.45405a8.054859 8.054859 0 0 1 13.841846-5.802627l4.692151 4.692151a37.850018 37.850018 0 0 0 54.272546 0l142.32858-144.768498a39.445349 39.445349 0 0 0 0-55.195336L980.659555 19.113305A64.126063 64.126063 0 0 0 935.004926 0.00061z" p-id="4696"></path></svg>