<svg viewBox="0 0 1024 1024" version="1.1" xmlns="http://www.w3.org/2000/svg" p-id="19395"><path d="M230.4 256h563.2c14.08 0 25.6-11.52 25.6-25.6s-11.52-25.6-25.6-25.6H230.4c-14.08 0-25.6 11.52-25.6 25.6s11.52 25.6 25.6 25.6zM230.4 409.6h563.2c14.08 0 25.6-11.52 25.6-25.6s-11.52-25.6-25.6-25.6H230.4c-14.08 0-25.6 11.52-25.6 25.6s11.52 25.6 25.6 25.6zM571.1728 791.6304L860.8016 502l72.4064 72.4064-289.6288 289.6288zM1005.6 429.6c-20-20-52.48-20-72.48 0l-36.16 36.16 72.48 72.48 36.16-36.16c20-20.16 20-52.48 0-72.48zM532 920.48l92.96-37.92-72.48-72.48-37.92 92.96c-2.56 4.8-1.92 11.04 2.24 15.04 4.16 4.32 10.24 5.12 15.2 2.4zM921.6 921.76c0 28.16-22.88 51.04-51.04 51.04H153.44C125.28 972.8 102.4 949.92 102.4 921.76V102.24C102.4 74.08 125.28 51.2 153.44 51.2h717.12c28.16 0 51.04 22.88 51.04 51.04v194.08l51.2-51.2V102.4c0-56.64-45.92-102.4-102.4-102.4H153.6C97.12 0 51.2 45.92 51.2 102.4v819.2c0 56.64 45.92 102.4 102.4 102.4h716.8c56.64 0 102.4-45.92 102.4-102.4V679.52l-51.2 51.2v191.04zM230.4 563.2h424.32l51.2-51.2H230.4c-14.08 0-25.6 11.52-25.6 25.6s11.52 25.6 25.6 25.6zM230.4 716.8h270.72l51.2-51.2H230.4c-14.08 0-25.6 11.52-25.6 25.6s11.52 25.6 25.6 25.6z" p-id="19396"></path></svg>