<svg viewBox="0 0 1024 1024" version="1.1" xmlns="http://www.w3.org/2000/svg" p-id="12960"><path d="M512.512 739.328c-12.8 0-25.6-3.072-38.4-9.728l-454.144-287.744c-9.728-6.656-12.8-19.456-6.144-32.256 6.144-9.728 18.944-12.8 31.744-6.144l454.144 284.672c8.704 6.144 20.48 6.144 28.672 0l454.144-284.672c9.728-6.656 25.6-3.072 31.744 6.144 6.656 9.728 3.072 25.6-6.144 32.256l-454.144 284.672c-12.8 9.216-25.6 12.8-41.472 12.8z" fill="" p-id="12961"></path><path d="M953.856 1024h-880.128c-38.4 0-73.728-32.256-73.728-70.656v-502.272c0-28.672 15.872-54.272 44.544-67.072l128-54.272c12.8-6.144 25.6 0 28.672 12.8 6.656 12.8 0 25.6-12.8 28.672l-128 54.272c-9.728 3.072-15.872 12.8-15.872 25.6v502.272c0 15.872 12.8 28.672 28.672 28.672h880.128c15.872 0 28.672-12.8 28.672-28.672v-512c0-3.072-3.072-6.144-6.144-9.728l-137.728-57.856c-10.752-5.12-16.384-17.408-12.8-28.672 3.072-12.8 18.944-15.872 28.672-12.8l137.728 57.856c18.944 9.728 31.744 28.672 31.744 51.2v512c1.024 38.4-31.232 70.656-69.632 70.656z" fill="" p-id="12962"></path><path d="M845.312 534.528c-12.288 0.512-22.016-9.216-22.528-21.504v-439.296c0-15.872-12.8-28.672-28.672-28.672h-563.2c-15.872 0-28.672 12.8-28.672 28.672V512c0.512 12.288-9.216 22.016-21.504 22.528h-1.024c-9.728 0-18.944-9.728-18.944-22.528v-438.272c0-38.4 31.744-73.728 70.144-73.728h563.2c38.4 0 73.728 32.256 73.728 73.728V512c0.512 12.288-9.216 22.016-21.504 22.528h-1.024z" fill="" p-id="12963"></path><path d="M439.808 475.136c26.112 10.752 54.272 17.408 88.064 17.408 32.256 0 60.416-5.632 83.968-14.848 23.552-8.704 41.984-21.504 56.32-39.424h0.512c1.024-9.216 8.704-16.896 18.432-16.896 10.24 0 17.92 7.68 18.432 17.408h1.536c-0.512 1.024-1.024 2.56-1.536 3.584-0.512 4.608-2.56 8.704-5.632 11.776-10.752 18.944-28.16 35.84-50.688 48.128-32.256 17.92-71.68 26.624-117.76 26.624-45.056 0-83.456-7.68-116.224-22.528-31.232-14.336-56.832-37.888-72.704-68.096-15.872-29.184-24.064-61.952-24.064-95.232 0-37.888 9.216-72.704 27.136-104.96 17.92-32.256 43.008-56.832 74.24-73.216 31.232-16.384 67.072-24.576 107.52-24.576 34.304 0 64.512 6.656 91.136 19.456 26.624 13.312 44.544 31.744 58.88 55.808 13.824 24.064 18.944 50.688 18.944 79.36 0 34.304-10.24 67.584-28.672 92.672-21.504 29.184-59.904 51.2-101.888 51.2-11.264 0-19.968-2.048-25.6-5.632-5.632-4.096-9.728-10.24-11.264-16.896-15.872 15.36-34.304 23.04-55.296 23.04-11.264 0-29.696-4.608-44.544-19.968-14.848-15.36-22.528-37.888-21.504-63.488 1.024-29.184 10.24-57.344 25.6-81.92 20.992-32.256 51.712-46.08 72.192-46.08 24.064 0 51.2 11.264 62.976 29.696l2.048-6.656c0-1.024-0.512-2.048-0.512-3.072v-1.536c0-9.728 8.192-17.408 17.92-17.408s17.92 7.68 17.92 17.408V247.808c0 3.072-1.024 6.144-2.56 8.704l-30.208 115.712c-1.536 6.144-2.56 12.288-3.072 18.432 0 3.584 1.024 5.632 2.56 7.68 1.536 1.536 3.584 2.56 5.632 2.56 6.656 0 29.696-9.216 39.936-16.896 13.824-10.24 22.016-19.456 30.72-36.864 8.704-17.408 10.752-34.816 10.752-53.248 0-32.768-7.168-60.416-31.232-82.944-24.064-22.016-57.856-33.792-101.376-33.792-36.864 0-66.048 7.68-91.648 22.528-25.088 14.336-45.568 36.352-58.368 62.464-12.8 26.624-20.48 54.784-20.48 83.968 0 28.16 7.168 53.248 21.504 76.288 14.848 24.064 36.352 42.496 61.952 52.736z m97.792-198.144c-7.168-8.192-18.432-11.264-29.696-11.264-11.776 0-20.992 2.56-30.72 11.264-9.728 8.704-17.408 17.408-22.528 33.792-5.12 16.384-11.776 31.232-11.776 44.032 0 16.896 3.584 29.696 10.752 37.376s19.968 12.288 30.208 12.288c7.68 0 12.8-3.072 19.456-6.656 5.12-2.56 10.24-6.656 15.36-12.8 7.168-8.192 13.312-19.968 18.432-35.84s11.776-29.184 11.776-43.008c0.512-14.848-4.096-20.992-11.264-29.184z" fill="" p-id="12964"></path><path d="M992.256 426.496l-478.208 291.84-482.816-291.84v555.008l34.304 23.552h901.12l40.96-42.496z" fill="" p-id="12965"></path></svg>