<svg viewBox="0 0 1024 1024" version="1.1" xmlns="http://www.w3.org/2000/svg" p-id="5191"><path d="M512 0C229.229 0 0 229.23 0 512s229.229 512 512 512c282.77 0 512-229.23 512-512S794.77 0 512 0z m0.001 855.246c-36.035 0-65.247-29.211-65.247-65.246s29.212-65.246 65.247-65.246c36.034 0 65.245 29.211 65.245 65.246s-29.211 65.246-65.245 65.246z m70.468-258.492c0 35.199-28.799 64-63.999 64h-12.94c-35.2 0-64-28.801-64-64v-364c0-35.2 28.8-64 64-64h12.939c35.2 0 63.999 28.8 63.999 64v364z" p-id="5192"></path></svg>