<svg viewBox="0 0 1054 1024" version="1.1" xmlns="http://www.w3.org/2000/svg" p-id="1414"><path d="M381.664639 88.076455h293.588185v80.069505h-293.588185zM899.892268 88.966116h-96.973067v80.069505h96.973067a74.731538 74.731538 0 0 1 74.731537 74.731538v625.431798a74.731538 74.731538 0 0 1-74.731537 74.731538H154.801043a74.731538 74.731538 0 0 1-74.731538-74.731538V242.877498a74.731538 74.731538 0 0 1 74.731538-74.731538h99.64205V88.966116H154.801043A154.801043 154.801043 0 0 0 0 242.877498v626.321459A154.801043 154.801043 0 0 0 154.801043 1023.110339h745.091225a154.801043 154.801043 0 0 0 154.801042-154.801043V242.877498A154.801043 154.801043 0 0 0 899.892268 88.966116zM278.019114 0m40.034752 0l0 0q40.034752 0 40.034753 40.034752l0 176.152911q0 40.034752-40.034753 40.034752l0 0q-40.034752 0-40.034752-40.034752l0-176.152911q0-40.034752 40.034752-40.034752ZM699.273675 14.234579m40.034752 0l0 0q40.034752 0 40.034753 40.034752l0 147.683753q0 40.034752-40.034753 40.034753l0 0q-40.034752 0-40.034752-40.034753l0-147.683753q0-40.034752 40.034752-40.034752ZM74.731538 320.278019h908.788879V400.347524H74.731538zM217.966985 724.629018m40.034753 0l538.245004 0q40.034752 0 40.034752 40.034753l0 0q0 40.034752-40.034752 40.034752l-538.245004 0q-40.034752 0-40.034753-40.034752l0 0q0-40.034752 40.034753-40.034753ZM292.698523 556.038228m40.034752 0l388.781929 0q40.034752 0 40.034753 40.034752l0 0q0 40.034752-40.034753 40.034752l-388.781929 0q-40.034752 0-40.034752-40.034752l0 0q0-40.034752 40.034752-40.034752Z" p-id="1415"></path></svg>