<svg viewBox="0 0 1024 1024" version="1.1" xmlns="http://www.w3.org/2000/svg" p-id="3254"><path d="M277.333333 272.657067A132.266667 132.266667 0 0 1 512 189.371733a132.266667 132.266667 0 0 1 234.666667 83.319467h91.818666a51.2 51.2 0 0 1 51.2 51.2v0.477867L887.466667 546.133333c-0.2048 19.797333-17.066667 34.133333-34.133334 34.133334v256a51.2 51.2 0 0 1-51.2 51.2h-580.266666A51.2 51.2 0 0 1 170.666667 836.266667V580.266667c-17.066667 0-34.304-15.018667-34.304-34.133334V323.857067a51.2 51.2 0 0 1 51.2-51.2h89.770666z m59.733334 0h145.066666a72.533333 72.533333 0 0 0-145.066666 0z m204.8 0h145.066666a72.533333 72.533333 0 0 0-145.066666 0z m-337.237334 68.266666V512H238.933333v307.2h546.133334v-307.2h34.474666l1.706667-171.076267H204.629333z m433.425067 80.452267l51.575467 44.714667-202.820267 234.018133-136.738133-152.132267 50.7904-45.636266 84.992 94.6176 152.200533-175.581867z" p-id="3255"></path></svg>