<svg width="120" viewBox="0 0 1024 1024" version="1.1" xmlns="http://www.w3.org/2000/svg"><path d="M683.526 272.122A104.987 104.987 0 1 0 578.54 167.006a105.117 105.117 0 0 0 104.987 105.116z m0 0" fill="#fff" p-id="35529"></path><path d="M856.218 241.83c-60.326 84.404-140.975 94.242-227.839 42.59-5.955-3.495-32.234-17.864-37.93-21.36-139.81-82.98-279.361-50.357-372.956 80.65-39.743 55.795 52.17 108.612 91.523 53.464 48.416-67.704 109.907-87.251 177.093-65.762-34.434 59.678-64.468 119.097-107.058 203.501s-136.315 151.85-226.415 99.162c-65.115-38.06-123.758 55.406-58.901 93.336 123.11 71.847 267.451 27.703 341.11-65.762a77.802 77.802 0 0 0 8.156 3.624c60.196 20.972 139.163 76.766 163.112 96.573s65.374 120.521 89.84 171.267c29.775 61.361 125.83 16.7 96.056-45.05-27.833-57.477-74.436-172.173-110.942-201.17-29.127-23.303-85.828-66.54-133.856-91.136q48.675-94.631 102.01-186.543c113.66 34.823 221.625-6.214 298.52-113.92 39.743-55.794-52.17-108.611-91.523-53.464z m0 0" fill="#fff"></path></svg>