<svg width="120" viewBox="0 0 1024 1024" version="1.1" xmlns="http://www.w3.org/2000/svg"><path d="M512 85.333333a42.666667 42.666667 0 0 0-42.666667 42.666667v42.666667a42.666667 42.666667 0 1 0 85.333334 0V128a42.666667 42.666667 0 0 0-42.666667-42.666667zM300.8 300.8a42.666667 42.666667 0 0 1-60.330667 0l-30.165333-30.122667A42.666667 42.666667 0 1 1 270.634667 210.346667l30.165333 30.165333a42.666667 42.666667 0 0 1 0 60.330667zM813.696 210.346667a42.666667 42.666667 0 0 0-60.330667 0l-30.165333 30.165333a42.666667 42.666667 0 0 0 60.330667 60.330667l30.165333-30.165334a42.666667 42.666667 0 0 0 0-60.330666zM300.330667 485.418667a213.333333 213.333333 0 0 1 423.381333 0C728.746667 526.165333 695.04 554.666667 661.333333 554.666667h-298.666666c-33.706667 0-67.413333-28.544-62.336-69.248zM896 469.333333a42.666667 42.666667 0 1 1 0 85.333334h-42.666667a42.666667 42.666667 0 1 1 0-85.333334h42.666667zM213.333333 512a42.666667 42.666667 0 0 0-42.666666-42.666667H128a42.666667 42.666667 0 1 0 0 85.333334h42.666667a42.666667 42.666667 0 0 0 42.666666-42.666667zM853.333333 682.666667a42.666667 42.666667 0 0 0-42.666666-42.666667H213.333333a42.666667 42.666667 0 1 0 0 85.333333h597.333334a42.666667 42.666667 0 0 0 42.666666-42.666666zM682.666667 853.333333a42.666667 42.666667 0 0 0-42.666667-42.666666H384a42.666667 42.666667 0 1 0 0 85.333333h256a42.666667 42.666667 0 0 0 42.666667-42.666667z" fill="#fff"></path></svg>