<svg viewBox="0 0 1316 1024" version="1.1" xmlns="http://www.w3.org/2000/svg" p-id="3665"><path d="M486.770116 995.320869s333.298009-224.782378-15.502233-527.075922-395.306941-348.800242-426.311407-434.062523c0 0-116.266747 108.515631 147.271213 418.56029 0 0-77.511165-15.502233-155.02233-116.266747 0 0-77.511165 131.76898 240.284611 325.546893 0 0-100.764514 23.253349-170.524562-54.257816 0 0-46.506699 108.515631 186.026795 201.529029 0 0 124.017864 38.755582 193.777913 186.026796zM829.369465 995.320869s-333.298009-224.782378 15.502233-527.075922 395.306941-348.800242 426.311407-434.062523c0 0 116.266747 108.515631-147.271213 418.56029 0 0 77.511165-15.502233 155.022329-116.266747 0 0 77.511165 131.76898-240.284611 325.546893 0 0 100.764514 23.253349 170.524563-54.257816 0 0 46.506699 108.515631-186.026796 201.529029 0 0-124.017864 38.755582-193.777912 186.026796z" p-id="3666"></path></svg>